<?xml version="1.0" encoding="utf-8"?>
<!-- Generator: Adobe Illustrator 12.0.0, SVG Export Plug-In . SVG Version: 6.00 Build 51448)  -->
<!DOCTYPE svg PUBLIC "-//W3C//DTD SVG 1.1//EN" "http://www.w3.org/Graphics/SVG/1.1/DTD/svg11.dtd" >
<svg  version="1.1" id="Layer_1" xmlns="http://www.w3.org/2000/svg" xmlns:xlink="http://www.w3.org/1999/xlink" width="499.475" height="514.474"
	 viewBox="0 0 499.475 514.474" overflow="visible" enable-background="new 0 0 499.475 514.474" xml:space="preserve">
<g>
	<path fill="#F5F5F5" stroke="#231F20" d="M434.118,283.047c-6.524-3.026-11.599-8.127-18.182-11.209
		c-3.502-1.639-7.209-1.99-10.81-2.696c-3.902-0.765-7.563-3.083-11.564-2.184c-3.753,0.844-6.973,1.158-10.521-0.999
		c-3.677-2.235-6.979-3.454-11.054-4.27c-3.989-0.798-8.178-1.218-12.257-1.015c-3.175,0.16-6.594,0.69-9.733-0.033
		c-3.252-0.747-6.323-1.734-9.726-2.076c-3.283-0.326-6.755,0.457-9.855,0.007c-3.336-0.482-6.717-0.861-10.263-1.206
		c-1.497-0.147-3.469,0.068-4.856-0.229c-4.91-1.05-8.258-9.159-10.389-12.993c-0.817-1.474-2.038-2.996-2.521-4.618
		c-1.001-3.374-0.057-7.658-0.061-11.222c-0.011-10.475-1.566-21.017-4.33-30.987c-1.177-4.244-1.504-8.429-2.576-12.718
		c-0.907-3.629-2.199-7.142-2.754-10.82c-0.453-3.006-1.434-5.842-1.761-8.879c-0.337-3.115-0.563-6.275-1.368-9.323
		c-0.915-3.463-1.676-7.186-2.757-10.62c-1.057-3.357-2.252-6.615-3.735-9.796c-3.942-8.46-5.677-17.889-10.442-25.994
		c-1.757-2.988-2.809-6.267-4.203-9.372c-2.944-6.562-7.152-11.78-14.591-12.485c-3.671-0.349-8.94,0.173-12.254-1.442
		c-7.959-3.878-13.958,3.697-18.498,9.616c-3.194,4.163-4.136,9.159-5.534,14.084c-1.35,4.752-4.149,8.993-5.322,13.771
		c-2.084,8.504,2.61,16.874,8.995,22.098c3.142,2.573,6.723,4.24,9.794,6.719c2.703,2.185,4.7,6.085,6.544,9.134
		c2.462,4.068,3.123,8.281,4.354,12.74c1.147,4.152,1.608,7.072,0.096,11.279c-2.038,5.664-4.914,11.143-6.192,17.061
		c-1.128,5.225-3.217,10.23-5.044,15.306c-2.695,7.489-5.194,14.293-6.778,22.152c-0.82,4.065-1.836,8.23-2.822,12.253
		c-2.066,8.439-3.807,17.013-5.544,25.689c-0.856,4.277-2.028,8.497-2.863,12.744c-1.157,5.89-1.131,12.347-3.129,18.026
		c-1.173,3.332-1.747,7.942-1.213,11.516c0.575,3.853,1.485,7.995,3.128,11.522c1.632,3.503,4.701,6.121,6.798,9.361
		c4.172,6.447,6.317,14.343,9.969,20.969c1.762,3.197,5.112,4.985,8.458,6.24c4.896,1.835,8.998,4.034,12.139,8.118
		c2.928,3.806,7.986,5.002,12.31,6.653c3.1,1.185,14.521,3.708,12.814,8.684c0.597-0.298,1.438-0.288,2.094-0.414
		c-0.197,3.325-0.944,9.587,1.765,12.117c1.88-1.169,1.76-0.229,2.896,0.524c1.481,0.981,0.771,1.19,2.81,1.012
		c2.687-0.233,4.776,0.61,7.458,0.481c1.281-0.063,2.449-0.323,3.598-0.727c0.846-0.3,2.013-1.448,2.94-1.383
		c2.521,0.184,1.007,4.384,4.685,2.144c0.854,0.625,1.35,1.545,1.304,2.57c2.643-0.357,4.76-2.262,6.256-4.252
		c3.617,1.5,5.521,7.55,9.706,5.605c0.196,0.665,0.427,1.335,0.616,2.012c1.041,0.053,2.003,0.256,3.04,0.316
		c0.711,1.326,2.785,1.555,4.124,2.173c2.189,1.012,4.133,2.417,6.299,3.484c3.438,1.692,8.736,4.307,12.594,4.161
		c-0.141-0.132-0.697-0.645-0.607-0.569c1.56,1.173,2.883,1.359,4.775,1.519c2.574,0.214,4.481,0.998,6.957,1.62
		c3.764,0.946,8.399,1.219,12.238,1.445c-1.029-0.612-2.276-1.602-2.882-2.735c2.966,5.566,15.829,0.846,20.001-0.513
		c3.555-1.155,6.898-2.42,10.334-3.849c2.628-1.09,14.039-4.351,13.861-7.647c1.861,3.333,13.36-8.703,15.149-10.407
		c2.499-2.382,5.076-4.34,7.878-6.324c1.5-1.059,5.551-2.322,5.776-4.219c-0.91,0.049-1.907-0.022-2.76-0.272
		c5.158-3.064,7.254-10.532,10.061-15.354c0.735,0.682,0.699,1.847,1.617,2.144c1.023,0.33,2.26-0.537,2.888-1.229
		c1.947,1.485,5.353,1.24,7.686,1.476c1.778,0.18,6.338,0.733,7.409-0.675c-0.484-0.35-0.806-0.964-1.321-1.271
		c1.776,0.157,3.224,0.789,5.165,0.696c0.066-0.844-0.092-1.646-0.468-2.364c0.862-0.777,1.998-0.217,3.162-0.024
		c-0.063-0.363,0.206-0.901,0.02-1.372c1.772-0.682,5.271,0.179,7.41-0.045c2.462-0.259,4.284-0.253,6.487-1.502
		c3.781-2.144,6.372-5.996,5.48-10.465c-0.071-0.102-0.845-0.864-0.977-0.98c-0.984,0.599-1.701,1.76-2.64,2.318
		c-1.401,0.835-2.687,0.762-4.269,1.071c-2.185,0.432-6.076,2.252-7.739,1.673c-0.577,0.772-1.54,1.315-2.511,1.614
		c0.571-0.499,1.031-1.324,1.332-1.855c-1.604-0.011-3.285,1.604-4.929,2.137c0.798-0.773,1.706-1.463,2.294-2.37
		c-1.813,0.409-3.725-0.37-5.462-0.731c0.201,0.574,0.069,1.681-1.01,1.174c-0.639-0.297-0.632-1.739-0.896-2.418
		c-0.658-1.675-0.839-3.398-1.46-5.008c0.876,0.317,1.86,0.74,2.811,0.719c0.01-0.31,0.077-0.651,0.073-0.957
		c0.007,0.545,4.928,2.243,5.462,2.319c-1.402-2.384-3.107-5.141-5.469-6.633c0.264,0.1,0.723,0.087,1.134,0.162
		c-0.008-1.892-2.734-3.078-3.963-4.298c0.359,0.029,0.736-0.039,1.08-0.023c-0.269-1.82-2.753-2.609-3.289-4.257
		c0.302,0.004,0.372,0.154,0.634,0.186c-0.179-2.014-3.815-3.843-5.216-4.967c0.355,0.013,0.794-0.11,1.158-0.088
		c-1.079-2.165-3.851-3.046-5.235-4.963c0.293-0.016,0.617-0.084,0.913-0.096c-1.488-2.501-5.318-5.141-7.459-6.196
		c0.196-0.024,0.545-0.057,0.732-0.048c-1.493-2.063-3.807-1.568-5.742-2.596c-1.551-0.827-3.118-2.79-4.244-4.006
		c3.616,0.42-0.535-4.646-1.333-5.541c-1.611-1.81-3.778-4.076-5.709-5.529c-4.078-3.071-8.282-5.061-9.871-10.293
		c1.347,1.116,4.62,1.907,5.734,0.409c0.12,1.107,1.053,1.931,1.991,2.539c-0.078-0.738,0.063-1.496-0.028-2.232
		c0.235,1.918,7.424,1.503,8.804,3.313c0.133-4.677-5.069-7.13-8.349-9.535c3.282,0.833,6.243,1.203,9.597-0.167
		c2.409-0.984,6.092-1.2,7.998,1.417c-0.494-4.125-6.923-4.888-9.84-6.599c2.54,1.564,5.943-0.44,8.613-0.281
		c2.648,0.156,4.931,1.667,7.131,3.094c-2.618-5.075-11.809-5.359-16.496-7.172C435.275,283.563,434.691,283.313,434.118,283.047z"
		/>
	<path fill="#636466" stroke="#231F20" d="M225.225,119.876c2.226-0.101,4.583-1.474,6.49-2.617
		c1.645-0.984,3.529-2.981,5.372-3.439c-0.669,2.597-1.811,5.073-1.955,7.9c-0.146,2.907,0.287,5.552,1.266,8.099
		c0.958,2.489,2.055,4.659,3.962,6.623c0.426,0.438,0.794,1.086,1.307,1.453c0.53,0.378,1.292,0.312,1.711,0.617
		c1.344,0.978,0.689,1.523-0.185,2.797c-1.524,2.224-3.042,2.625-3.565,5.44c-0.348,1.859-0.546,1.758-2.329,2.357
		c-2.591,0.864-4.717,2.085-6.996,3.641c-4.024,2.752-8.396,6.97-13.176,8.071c-3.833,0.885-7.965,0-11.854,0.171
		c-1.814,0.081-3.552,0.607-5.269,1.12c-3.547,1.063-6.775-0.184-9.231-2.515c-0.905-0.862-1.989-0.726-2.887-1.438
		c-3.437-2.718,4.753-7.839,6.714-9.234c1.834-1.305,3.609-2.753,5.273-4.278c2.806-2.576,5.538-5.299,8.064-8.146
		c2.355-2.654,2.278-5.976,4.087-8.875c1.02-1.631,1.691-2.147,1.922-4.105c0.208-1.755,0.314-3.521,0.829-5.22
		c0.552-1.825,1.638-5.271,2.667-6.646c-0.806,1.078,0.745,4.604,1.504,5.504C220.457,118.945,222.893,119.984,225.225,119.876z"/>
	<path fill="#231F20" stroke="#231F20" d="M227.386,130.906c-1.693-0.348-2.456,1.534-3.931,1.285c-0.657,2,1.016,3.444,2.855,2.364
		c1.27-0.747,2.724-3.515,0.355-3.829"/>
	<path fill="#231F20" stroke="#231F20" d="M257.065,107.261c-1.549,1.881-4.662,1.076-6.412-0.18
		c-0.994-0.712,3.492-10.004,6.874-7.226c-0.192-0.021-0.382-0.052-0.57-0.092C257.007,102.492,259.31,104.539,257.065,107.261z"/>
	<path fill="#636466" stroke="#231F20" d="M287.918,403.993c-1.122,0.113-2.414,0.198-3.524-0.033
		c-0.759-0.155-1.515-0.774-2.297-0.752c-2.358,0.062-1.96,2.429-2.645,4.032c-0.522,1.223-1.642,2.265-2.307,3.429
		c-1.382,2.413-2.14,6.054-2.563,8.866c-1.001,6.665-3.613,13.109-5.894,19.454c-1.483,4.125-4.213,7.158-6.13,10.989
		c-1,2-2.279,4.108-3.077,6.178c-0.641,1.664-0.325,3.82-1.242,5.362c-1.243,2.091-4.086,3.889-6.354,4.643
		c-2.96,0.986-6.53,1.07-9.727,1.072c-3.18,0.003-6.071,0.548-9.187,0.859c-11.375,1.144-23.407,1.372-34.768,2.963
		c-3.637,0.511-8.261,1.571-8.985,5.874c1.068-0.034,2.684-0.665,3.714-1.023c1.554,2.713,4.721,1.141,7.044,2.541
		c-0.167,0.639,0.172,3.176,0.879,3.606c1.059,0.646,4.829-1.05,6.284-1.175c2.319-0.198,4.601,0.222,6.914,0.226
		c2.836,0.004,5.641-0.283,8.468,0c3.007,0.3,6.029,0.423,9.007,0.729c3.458,0.355,6.728-0.701,10.056-0.519
		c0.322,0.896,0.604,1.762,0.964,2.641c1.299,0.102,1.845-1.901,3.009-2.287c-0.252,0.716,0.077,0.606,0.202,1.074
		c1.226-0.607,2.781-0.252,4.143-0.339c1.64-0.102,3.054-0.478,4.513-1.254c2.624-1.394,5.262-1.331,8.088-2.032
		c2.665-0.66,4.47-1.147,6.265-3.452c1.952-2.508,3.662-5.311,6.318-7.148c1.054,1.606,3.242,2.274,5.049,2.108
		c0.148-0.573,0.299-1.018,0.055-1.56c0.877-0.179,1.823-0.462,2.507,0.268c0.008-1.271-1.312-1.399-2.181-1.921
		c-1.115-0.672-1.727-1.235-2.376-2.483c-1.472-2.828-0.814-6.702-0.567-9.768c0.302-3.757,1.228-7.445,2.465-10.994
		c2.531-7.255,6.374-13.981,10.348-20.524c2.078-3.421,3.587-6.432,4.152-10.273c0.483-3.28,0.343-7.73-0.491-10.925
		C292.717,404.215,289.922,403.789,287.918,403.993z"/>
	<path fill="#636466" stroke="#231F20" d="M379.245,418.165c-0.286,2.975-0.982,5.894-0.538,8.897
		c0.843,5.696,4.1,10.488,4.684,16.392c0.688,6.971,0.04,14.012-1.261,20.896c-0.557,2.946-3.034,8.122-1.638,10.952
		c-1.466,0.198-2.805,1.776-4.117,2.429c-1.813,0.899-3.873,1.69-5.773,2.3c-2.887,0.929-6.025,0.51-9.004,0.618
		c-2.729,0.102-4.979,0.896-7.571,1.67c-5.373,1.608-11.892,1.42-17.472,1.446c-1.647,0.008-3.188-0.328-4.865,0.531
		c-1.127,0.58-2.653,2.118-3.04,3.26c1.318-0.319,3.386-1.584,4.769-0.868c-1.279,1.358,0.147,2.58,1.492,2.924
		c-0.241,0.826,0.437,1.312,0.783,2.119c0.492,1.151,0.444,1.343,0.185,2.384c-0.77,3.091-0.055,2.78,2.271,1.415
		c0.059,3.221,5.071,0.309,6.335-0.02c3.42-0.887,7.2-0.387,10.666-0.534c4.204-0.175,8.603,0.276,12.749,0.938
		c1.976,0.315,3.777,0.557,5.585,1.22c0.676,0.251,1.617,1.058,2.332,1.091c1.154,0.056,1.596-0.97,2.68-0.877
		c0.673,1.489,3.536,1.736,4.896,1.409c2.028-0.487,2.917-2.084,4.278-3.395c1.004,2.084,3.438-1.36,4.408-2.149
		c1.391-1.133,4.493-1.882,4.683-3.602c0.106-0.952-0.985-1.273-1.254-2.06c-0.372-1.089-0.195-2.108,0.266-3.076
		c0.471-0.986,1.102-1.091,1.314-2.29c0.326-1.854-0.812-2.971-1.4-4.529c-0.774-2.057-1.037-5.088-0.374-7.19
		c0.85-2.711,0.973-5.266,0.518-8.287c-0.434-2.898-0.636-5.766-0.364-8.633c0.366-3.871-1.204-7.117-0.943-10.909
		c0.298-4.322,1.607-8.489,2.556-12.695c0.854-3.788,0.754-7.46,0.534-11.3c-0.209-3.695,0.564-7.443,0.694-11.162
		c-0.932,1.553-1.818,2.8-3.017,4.251c-2.385-2.603-5.116,1.369-7.552,2.157c0.457-1.064,0.544-2.135,0.489-3.374
		c-1.475-0.086-1.946,1.152-3.435,0.741c-1.062-0.29-2.089-1.401-3.026-1.951C380.11,411.964,379.542,415.072,379.245,418.165z"/>
	<path fill="#F5F5F5" stroke="#231F20" d="M136.174,166.088c-6.139-13.987-4.399-27.002-2.463-41.781
		c0.487-3.719,0.973-7.357,1.43-11.116c0.472-3.888,0.667-7.586,1.435-11.413c0.885-4.427-0.02-9.073,1.167-13.558
		c1.466-5.54,5.242-10.084,7.052-15.483c1.767-5.262,0.611-11.862-0.688-17.132c-0.925-3.753-2.979-7.129-4.136-10.582
		c-1.194-3.561-1.468-7.443-1.748-11.275c-0.96-13.13-23.645-13.988-32.104-8.219c-6.137,4.185-4.39,13.722-7.409,19.801
		c-3.178,6.406-7.099,11.325-7.751,18.682c-0.349,3.92,0.424,8.321,1.682,11.565c0.034-0.354,0.206-0.641,0.247-0.91
		c-0.348,2.287,2.779,4.713,2.734,7.397c-0.079,4.63-0.598,9.363-0.002,13.978c0.515,3.984,1.407,8.058,1.598,12.105
		c0.182,3.89,0.707,7.665,0.708,11.589c0.001,9.82-0.613,20.311-3.35,29.784c-2.594,8.976-8.417,16.752-11.003,25.754
		c-1.117,3.882-2.244,7.559-3.608,11.475c-3.05,8.748-7.555,16.82-11.284,25.274c-1.691,3.836-4.028,7.2-6.297,10.701
		c-5.652,8.717-10.128,17.811-14.119,27.25c-2.377,5.622-5.204,10.727-6.551,16.759c-1.418,6.349-2.001,12.026-2.384,18.548
		c-0.345,5.932-1.907,11.506-1.604,17.462c0.35,6.873,1.946,13.647,3.995,20.196c1.023,3.269,3.488,5.993,4.318,9.126
		c1.017,3.847,1.916,6.68,4.022,10.153c2.336,3.851,1.403,10.181,2.768,14.779c1.313,4.418,4.908,9.807,9.039,12.032
		c-0.167-0.895-0.586-1.714-0.895-2.596c0.905,2.592,4.175,2.225,5.619,4.068c2.021,2.579,2.078,6.986,3.045,10.027
		c1.112,3.502,2.154,7.511,4.204,10.676c2.019,3.114,4.634,6.134,6.971,9.079c2.024,2.555,6.281,5.826,6.064,9.53
		c-0.035-0.375,0.059-0.757,0.055-1.11c1.947,2.353,2.67,5.291,4.335,7.913c1.634,2.573,3.758,4.771,5.409,7.183
		c-0.142-0.644-0.177-1.469-0.39-2.12c4.326,3.997,11.979,2.277,17.21,0.729c-0.139,0.787-0.266,1.523-0.401,2.334
		c7.514,0.356,15.502-1.711,22.697,1.488c-0.195-0.051-0.579-0.199-0.618-0.21c1.284,0.538,2.619,0.392,3.98,0.48
		c-0.589,1.553-2.225,1.361-2.775,2.794c5.965,1.767,10.972-0.227,16.514-2.091c-0.338,1.025-0.68,2.194-1.38,3.063
		c4.124-1.306,8.323-2.798,12.7-3.275c2.855-0.31,5.867-0.142,8.712-0.293c2.093-0.111,6.009,0.876,7.662,0
		c-1.263-0.937-3.105-1.548-4.333-2.6c2.321,0.409,4.509-1.236,6.714-2.263c2.352-1.096,5.144-2.718,6.952-4.534
		c0.563,0.615,0.964,1.429,1.435,2.173c1.299-0.805,2.418-1.869,3.434-3.105c1.83-2.224,1.015-1.357,3.784-0.953
		c2.566,0.375,5.165-2.987,6.431-5.212c0.03,1.197-0.264,2.416-0.384,3.5c1.526-2.672,3.529-5.425,4.815-8.382
		c0.741-1.7,1.392-3.414,2.149-5.044c0.673-1.448,1.265-4.197,2.548-5.013c0.282,0.532,0.949,0.962,1.2,1.384
		c-0.207-4.368,3.161-8.452,4.558-12.465c0.726-2.085,0.752-4.302,1.068-6.484c0.206-1.421,0.56-4.829,1.387-5.801
		c1.468,2.725-0.675,7.217,0.534,10.052c2.006-6.346,4.289-13.001,5.324-19.586c1.033-6.583-1.52-12.638-2.501-19.065
		c-0.771-5.061-2.088-9.781-3.657-14.779c-2.557-8.146-7.247-15.47-11.415-22.697c-4.63-8.029-10.512-16.007-12.443-25.17
		c-1.947-9.238-6.822-17.995-13.131-24.964c-1.851-2.043-4.261-3.559-6.484-5.238c-1.833-1.383-3.874-2.355-5.64-3.846
		c-1.598-1.349-3.566-2.061-5.162-3.362c-1.617-1.318-3.002-3.137-4.272-4.778c-2.728-3.524-4.939-7.416-6.881-11.417
		c-3.862-7.955-6.607-16.389-10.232-24.449c-3.414-7.593-5.19-16.315-6.881-24.41c0.755,0.448,1.027,0.217,1.675,0.301
		c-0.014-2.334-1.662-3.912-2.367-5.973C138.053,170.311,137.133,168.273,136.174,166.088z"/>
	<path fill="#231F20" stroke="#231F20" d="M130.469,83.167c-0.233-2.294,0.487-4.798-0.451-6.955
		c-0.943-2.166-3.24-3.956-5.494-4.534c-3.192-0.82-7.404-0.321-10.269,1.447c-3.186,1.966-2.028,3.985-2.332,7.16
		c-0.452,4.733-4.522,11.312-0.418,15.541c3.372,3.478,10.856,3.764,15.181,2.654c4.8-1.232,6.634-4.365,5.233-9.198
		C131.314,87.194,130.693,85.38,130.469,83.167z"/>
	<path fill="#636466" stroke="#231F20" d="M123.48,46.975c-2.328,0.75-4.779,0.941-7.108-0.072c-0.62-0.271-5.191-4.005-5.043-4.06
		c-2.2,0.826-1.929,5.567-2.116,7.359c-0.317,3.026-0.372,5.923-1.077,8.826c-0.659,2.711-2.351,4.522-3.648,6.847
		c-0.948,1.696,0.103,1.518,0.589,3.232c0.381,1.336,0.053,3.045-0.009,4.333c-0.128,2.735-1.008,5.613-0.54,8.465
		c0.535,3.262,2.141,3.926,5.403,3.965c1.47,0.017,2.98-0.463,4.323-0.36c1.253,0.096,2.454,1.144,3.609,1.616
		c2.578,1.052,5.826,1.242,8.461,0.185c1.405-0.565,2.641-1.428,4.145-1.687c1.784-0.307,3.72,0.393,5.403-0.516
		c1.966-1.061,1.405-3.708-0.519-4.679c0.605-2.39-0.097-4.374-0.522-6.67c-0.341-1.839-1.095-4.791-0.37-6.595
		c2.123-0.374-0.493-5.585-0.905-6.512c-0.646-1.453-1.523-2.728-1.875-4.282c-0.477-2.098-0.333-4.291-0.813-6.389
		c-0.29-1.266-0.246-7.081-2.162-6.778c-1.046,0.167-1.421,1.388-2.043,2.072c-0.806,0.886-1.205,0.962-2.249,1.367
		C124.105,46.762,123.793,46.874,123.48,46.975z"/>
	<path fill="#231F20" stroke="#231F20" d="M112.094,58.307c-0.797-0.301-0.099,1.896-0.152,2.856c2.6,0.556,2.477-3.656,0.512-3.036
		"/>
	<path fill="#231F20" stroke="#231F20" d="M127.723,61.242c1.963,0.494,0.416-3.46,0.549-3.636
		c-0.479,0.627-1.312,0.836-2.057,0.792C126.326,59.291,126.663,60.978,127.723,61.242z"/>
	<path fill="#231F20" stroke="#231F20" d="M101.767,43.115c1.703-3.047,2.362-7.611,1.013-10.789
		c0.416,0.979-1.652,3.913-1.908,4.929c-0.581,2.321,1.138,3.546,0.705,5.646c0.367-0.624,0.421-1.232,0.43-1.947"/>
	<path fill="#231F20" stroke="#231F20" d="M136.654,42.61c-0.127-0.222,1.639-3.679,1.638-4.488
		c-0.002-1.917-1.206-2.346-1.441-4.117C135.278,36.278,135.281,40.189,136.654,42.61z"/>
	<path fill="#636466" stroke="#231F20" d="M89.541,470.256c1.562-1.632-0.118-4.419-0.145-6.625
		c-0.073-6.108,3.619-11.17,5.804-16.754c1.067-2.726,2.104-5.939,2.122-8.829c0.029-4.653-0.658-9.126-0.461-13.718
		c0.04-0.915-0.674-9.133-0.048-9.307c0.56-0.157,0.993-0.428,1.563-0.604c-0.095-0.74-0.49-1.509-0.671-2.243
		c0.158,0.009,0.333,0.081,0.491,0.092c0.017-0.601,0.042-1.063-0.305-1.553c0.711-0.428,1.563-0.147,2.287,0.11
		c-0.122-1.174,1.147-2.009,2.185-1.964c1.452,0.063,1.538,0.741,1.81,1.982c0.55,2.517,1.158,3.979,3.585,5.003
		c-0.491,0.137-0.771,0.424-1.185,0.595c0.992-0.017,2.002-0.039,2.981,0.028c-0.414,0.859-0.765,2.171-0.526,3.21
		c0.324,1.414,1.495,1.524,2.174,2.332c1.286,1.527-0.252,4.441-0.869,6.491c-1.749,5.807-1.975,11.842-2.928,17.832
		c-0.475,2.989-0.601,5.918-0.755,9.009c-0.31,6.202,0.615,10.589,4.909,15.087c1.815,1.9,3.563,3.596,5.583,5.224
		c1.827,1.473,3.72,3.756,3.967,6.107c-0.835-1.211-2.181-2.369-3.621-2.753c-0.143,3.309-4.999,1.49-6.25-0.106
		c-1.069-1.366-2.73-6.101-5.09-5.912c-3.02,0.24,1.719,5.482,2.572,6.268c6.477,5.964-2.027,14.192-9.012,11.89
		c-0.648-0.213-0.662-0.584-1.487-0.676c-0.796-0.088-1.42,0.404-2.161,0.55c-1.445,0.286-3.042,0.385-4.503,0.534
		c-4.464,0.461-8.837,0.332-13.331,0.173c-5.706-0.203-12.421,0.274-17.843,1.436c-2.363,0.509-4.341,2.246-6.792,0.511
		c-0.785-0.557-1.347-1.763-2.197-2.131c-1.315-0.571-2.492,0.945-3.58,0.337c-0.179-2.623,2.808-4.211,4.489-5.66
		c-1.206,1.021-2.565,1.38-3.669,2.793c0.226-0.29-2.758-0.043-2.957-0.023c-1.673,0.159-3.083,0.013-4.742-0.311
		c-1.945-0.378-3.806,0.064-5.764-0.009c-2.908-0.108-8.115,0.719-8.313-3.396c-1.301,0.103-2.677,0.908-3.918,0.476
		c0.866-3.025,5.215-2.442,7.368-2.661c2.977-0.304,5.777-0.963,8.687-1.405c3.868-0.591,7.877-2.035,11.661-2.391
		c3.115-0.294,6.083,0.172,9.192,0.009c5.288-0.277,10.824-0.782,15.855-1.99c3.678-0.885,7.831-0.51,10.717-3.385
		C84.745,473.145,88.946,470.878,89.541,470.256z"/>
	<path fill="#636466" stroke="#231F20" d="M189.917,411.389c0,2.49-0.389,5.969-1.251,8.655c-0.783,2.442-2.171,4.822-2.171,7.558
		c-0.001,5.105,2.888,10.57,4.504,15.321c2.482,7.304,4.181,17.276,1.041,24.631c-1.114,2.607-0.106,4.914-1.542,7.43
		c-1.292,2.262-3.515,4.353-5.665,5.891c-2.861,2.048-7.077,2.939-10.589,2.933c-1.565-0.004-3.519-0.163-5.044,0.009
		c-2.683,0.304-4.588,2.363-7.157,2.884c-3.048,0.62-6.29,0.453-9.376,0.31c-2.481-0.113-8.715,0.706-9.785,3.571
		c1.184-0.829,3.328-1.261,4.669-0.798c0.234,2.353,1.829,3.132,3.995,3.53c4.243,0.78,8.556,0.933,12.793,1.663
		c1.813,0.313,3.474,0.462,5.062,1.404c1.662,0.986,3.019,3.007,5.023,3.278c2.97,0.403,4.365-1.127,6.422-2.702
		c1.771-1.354,4.405-1.521,6.548-1.626c3.02-0.149,6.026-0.446,9.006-0.175c2.729,0.248,5.769,0.171,8.467,0.72
		c2.871,0.586,5.712,1.288,8.646,1.446c1.424,0.077,3.994-0.005,5.004-1.207c0.971,2.8,4.324,0.168,5.04-1.504
		c0.987-2.308-0.381-4.038-2.158-5.392c-1.987-1.516-4.268-2.134-6.435-3.296c-4.089-2.193-6.954-4.334-9.113-8.464
		c-1.728-3.307-2.392-6.999-3.169-10.61c-1.163-5.393-2.23-10.138-2.133-15.772c0.093-5.3,0.717-10.751,1.254-15.907
		c0.375-3.605,0.298-7.234,0.151-10.848c-0.077-1.88-0.166-3.761-0.254-5.641c-0.066-1.421-0.617-2.304-0.645-3.659
		c-1.986,0.327-3.95,0.061-5.744-0.746c-1.364-0.612-2.376-1.908-3.786-2.454c0.032,0.46-0.184,0.843-0.023,1.346
		c-0.764-0.341-1.086-1.543-1.931-2.143c-0.014-0.355,0.176-0.04,0.341-0.178"/>
	<path fill="none" stroke="#231F20" d="M98.044,224.58c0,0-9.368,36.389-3.243,82.506"/>
	<path fill="none" stroke="#231F20" d="M196.762,326.541c-3.409,6.233,8.89,13.089,12.601,16.116
		c6.771,5.519,14.539,13.018,14.06,22.796"/>
	<path fill="none" stroke="#231F20" d="M185.593,409.408c-0.348,0.257-0.662,0.525-1.025,0.664c1.359-1.665,2.269-4.257,2.771-6.394
		c-0.639,0.671-1.78,1.387-2.403,2.087c0.653-2.052,1.599-4.082,1.323-6.393c-0.582,0.247-1.109,0.074-1.771,0.54
		c1.273-5.063-1.494-9.723-2.498-14.646"/>
	<path fill="none" stroke="#231F20" d="M97.323,403.643c-0.729,0.677-1.52,1.266-2.198,2.015c0.906-0.967,1.254-2.157,0.756-3.147
		c-0.144,0.271-0.226,0.764-0.419,1.105c-0.563-0.705-0.977-1.942-1.083-3.163c-2.653-0.395-1.919-5.329-5.281-3.7
		c-0.575-1.53-0.928-3.244-0.855-4.962c-0.844,0.536-1.61,0.312-2.414,0.61c0.565-0.941,0.693-2.194,0.99-3.115
		c-0.547,0.262-1.457,0.061-2.053,0.252c-0.127-4.614-2.788-6.586-4.738-10.756"/>
	<path fill="none" stroke="#231F20" d="M364.656,352.841c3.152,0.319,7.688,3.385,10.445,5.043c3.443,2.073,5.809,5.829,9.666,6.812
		c-0.147-0.521-0.055-1.589-0.231-2.079c2.387,1.426,4.923,3.307,7.483,4.918c5.191,3.267,15.728,10.338,21.635,9.087"/>
	<path fill="none" stroke="#231F20" d="M401.405,363.649c4.106,3.398,11.603,3.902,16.908,3.524c0.041-0.23-0.076-0.331-0.354-0.299
		c-0.291,0.006-0.302,0.013-0.034,0.021c1.66,0.23,6.136,0.448,6.68,1.455c2.274,0.016,6.879,0.038,8.514-1.817
		c1.41-1.602,1.468-4.709-0.604-6.142c0.848,0.231,1.919,0.086,2.711,0.321c-0.665-2.004-3.793-2.867-5.329-4.204
		c0.554,0.164,1.388,0.147,2.008,0.313c-1.803-1.365-1.493-3.702-3.118-5.421"/>
	<path fill="none" stroke="#231F20" d="M416.537,345.997c1.489-0.543,2.621-1.732,3.189-3.15c0.074,0-0.655-0.475-0.602-0.409
		c2.262,4.286,18.498,1.054,20.418-3.557c-2.023-2.582-4.532-4.969-6.433-7.656"/>
	<path fill="none" stroke="#231F20" d="M418.337,326.18c0.896,3.095,17.521,0.902,13.947-5.709c-0.127-0.14-0.135-0.132-0.02,0.02
		c1.087,0.738,2.467,1.02,3.366,0.646"/>
	<path fill="none" stroke="#231F20" d="M408.611,308.165c2.876,0.637,13.121,9.026,14.411,0.722"/>
	<path fill="none" stroke="#231F20" d="M437.073,359.687c4.281-1.568,10.486,1.172,15.386,1.799
		c-2.675-0.492-1.939-4.848-5.157-4.293c-0.044-0.042-0.318-0.479-0.752-0.754c1.964,0.013,3.928-0.009,5.89,0.025
		c-0.027-0.139-0.461-0.257-0.461-0.39c4.257-1.799,9.653-2.491,13.558-3.952"/>
	<path fill="none" stroke="#231F20" d="M451.125,351.041c2.517-2.589,9.895-2.218,13.329-3.603"/>
	<path fill="none" stroke="#231F20" d="M448.961,345.997c3.373-1.746,8.151-2.239,11.893-2.522"/>
	<path fill="none" stroke="#231F20" d="M445,339.871c3.626-0.266,8.419-3.41,11.889-1.801"/>
	<path fill="none" stroke="#231F20" d="M443.198,335.187c3.217-0.067,5.972-1.987,9.367-1.8"/>
	<path fill="none" stroke="#231F20" d="M393.477,345.636c-0.004-1.563,0.193-3.197-0.377-4.557
		c-0.482,3.228,6.101,6.661,8.305,4.557"/>
	<path fill="none" stroke="#231F20" d="M347.001,295.556c0.176,3.505,4.759,6.025,4.972,9.693c-1.138-1.193-1.606-3.335-2.035-4.972
		c2.06,2.188,8.162,2.096,10.718,0.593c-0.278-0.852-0.406-1.874-0.982-2.665c0.55,1.424,1.762,2.483,3.205,2.982
		c-0.408-0.675-0.367-1.36-0.961-2.063c1.975,1.085,6.731-0.572,6.707-3.208c-0.021-2.221-5.451-5.528-7.094-6.78
		c3.615,0.437,6.321,1.927,9.971-0.424"/>
	<path fill="none" stroke="#231F20" d="M394.558,410.127c4.33-0.733,6.827-9.592,6.927-13.661c0.504,1.557,0.293,4.053,0.262,5.967
		c1.013-1.809,2.024-3.496,3.278-5.15c-0.095,0.663,0.082,1.372,0.037,2.009c1.206-0.937,2.697-2.229,4.206-2.448
		c0.406,1.755-0.697,3.24-1.313,4.601c2.052-1.308,4.453-1.856,6.697-2.801c0.124,0.657,0.476,1.016,0.512,1.722
		c5.289-4.658,4.355-17.87,4.254-24.105"/>
	<path fill="none" stroke="#231F20" d="M363.214,391.394c-0.303-0.25-0.604,0.276-0.692-0.28c4.573,0.107,10.536,5.184,9.033,9.95
		c0.292-0.324,1.554-1.134,2.037-1.709c0.264,2.795-2.07,5.1-3.126,7.485c1.937-0.637,4.827-0.902,6.386-2.423
		c-0.5,1.172-0.016,1.729,0.125,2.781c0.662-0.826,1.703-0.903,2.397-1.338c-0.153,2.346,2.223,3.809,4.376,3.908"/>
	<path fill="none" stroke="#231F20" d="M242.158,264.211c0.998,5.532,0.022,11.238-1.363,16.653
		c-3.89,15.209,2.391,30.144,6.768,44.596"/>
	<path fill="none" stroke="#231F20" d="M261.254,364.011c1.16,2.6,3.566,4.778,5.358,7.078c-0.714-1.123-0.457-1.755-0.612-2.987
		c1.36,1.013,3.263,2.517,4.323,1.375c6.327-0.379,15.755-0.626,20.475,4.261"/>
	<path fill="none" stroke="#231F20" d="M272.062,146.758c2.209-1.756,3.857-3.9,2.495-7.07c0.423,0.826,1.096,1.527,1.757,2.269
		c-0.145-0.854,0.006-1.894-0.226-2.727c0.361,0.093,0.38,0.347,0.675,0.558c-0.178-0.837,0.15-1.826,0.045-2.616
		c2.147-0.349,0.052-4.791-0.783-6.266"/>
	<path fill="none" stroke="#231F20" d="M26.707,485.248c0.83-0.251,1.768-0.701,2.193-1.412c0.698-0.038,1.42-0.027,2.131-0.029"/>
	<path fill="none" stroke="#231F20" d="M50.666,491.012c1.606-1.177,2.366-2.689,2.228-4.519c0.183-0.058,0.603-0.188,0.809-0.204
		c0.234-1.555,4.116-0.955,5.43-1.082c1.921-0.186,3.218-1.294,5.041-1.58c4.617-0.729,11.257-1.256,14.821-4.656
		c0.29,0.183,0.529,0.062,0.855,0.151"/>
	<path fill="none" stroke="#231F20" d="M96.962,479.843c0.113,0.304,1.286,0.735,1.667,1.396c0.615,1.072,0.142,0.869-0.27,1.982
		c-0.331,0.9-0.546,5.926,0.944,4.161c-0.419,1.321,0.754,3.963,2.524,3.09"/>
	<path fill="none" stroke="#231F20" d="M101.827,485.787c-0.061,1.027,1.501,2.891,2.71,2.532c0.795-0.238,1.471-2.673,1.793-3.432"
		/>
	<path fill="none" stroke="#231F20" d="M172.803,492.813c-0.187,0.071-0.303,0.162-0.509,0.211
		c-0.036,1.122,0.802,3.089,1.918,3.368c0.08-1.086,0.813-1.907,1.333-2.837c0.741,0.216,1.555,0.012,1.973-0.711
		c0.673-0.152,1.339-0.11,1.77,0.328"/>
	<path fill="none" stroke="#231F20" d="M183.071,494.434c-0.369-1.34,1.171-1.34,2.167-1.616c2.519-0.701,4.564-2.436,6.844-3.752
		c1.763-1.016,3.063-1.703,4.365-3.229c0.891-1.043,1.262-1.776,2.837-2.03"/>
	<path fill="none" stroke="#231F20" d="M213.155,492.813c0.524,0.579,2.957,1.678,3.282,1.283c0.373,0.538,0.914,1.219,1.582,1.599"
		/>
	<path fill="none" stroke="#231F20" d="M198.563,483.986c3.424-0.659,5.601-0.209,7.206,3.062"/>
	<path fill="none" stroke="#231F20" d="M187.575,482.185c0.325,0.574,0.288,1.172-0.164,1.543c0.355-0.218,0.786-0.446,1.177-0.654
		c-2.781,2.159-6.659,4.336-9.956,5.525c-2.072,0.75-6.365,1.487-6.37,4.396"/>
	<path fill="none" stroke="#231F20" d="M149.565,492.454c0.697,0.22,1.794,0.412,2.697,0.359c1.434-0.084,1.419-0.754,2.383-1.215
		c1.59-0.761,4.282-1.12,6.057-1.158c0.401-0.82,1.342-0.469,2.198-0.508c1.771-0.087,3.561-0.59,5.219-1.262"/>
	<path fill="none" stroke="#231F20" d="M241.978,481.824c-0.225,0.013-0.258,0.336-0.368,0.016
		c-0.195-2.326,1.429-4.079,3.597-4.374c-1.924-2.387,13.313-5.689,13.898-8.265c-0.13-0.373-0.137,0.064-0.374,0.014"/>
	<path fill="none" stroke="#231F20" d="M207.39,480.023c1.621-1.134,3.339-1.168,5.216-1.071c2.209,0.115,2.969-0.933,5.048-1.41
		c3.955-0.911,8.421-0.352,12.475-0.542c4.943-0.23,9.754-0.88,14.518-2.064c0.307-0.264,0-0.011-0.148,0.044"/>
	<path fill="none" stroke="#231F20" d="M334.931,494.794c2.021-4.077,4.746-5.703,9.337-5.975c0.629-1.396,3.538-1.598,4.896-1.731
		c5.194-0.507,9.899-1.774,14.996-3.061c5.267-1.331,10.863-3.617,16.15-3.247c-0.137,0.213-0.344,0.514-0.522,0.685"/>
	<path fill="none" stroke="#231F20" d="M376.544,498.217c-2.659,0.676-0.316-6.599,1.774-5.611c0.046-0.146-0.203-0.167-0.132-0.293
		c1.292-0.31,2.333-1.713,3.08-2.742c1.263-1.732,2.447-3.476,3.678-5.233c-0.092,0.026-0.182,0.017-0.269-0.025
		c0.546-0.722,0.229-1.525-0.566-1.946"/>
	<path fill="none" stroke="#231F20" d="M347.361,494.794c0.818-0.346,3.162-0.331,1.965-1.799c0.695-0.848,2.298-1.051,3.392-1.269
		c3.083-0.608,6.185-1.315,9.231-2.147c4.018-1.094,8.146-2.075,12.259-2.755c1.177-0.194,2.915-0.931,3.778-0.316"/>
	<path fill="none" stroke="#231F20" d="M333.13,486.508c-0.246,0.03-0.222,0.293-0.526,0.144c2.296-0.883,6.738-0.524,9.354-0.685"
		/>
</g>
</svg>
